<?xml version="1.0" encoding="UTF-8"?>
<svg width="1000px" height="1000px" viewBox="0 0 1000 1000" version="1.1" xmlns="http://www.w3.org/2000/svg" xmlns:xlink="http://www.w3.org/1999/xlink">
    <!-- Generator: Sketch 52.3 (67297) - http://www.bohemiancoding.com/sketch -->
    <title>Custom Preset</title>
    <desc>Created with Sketch.</desc>
    <g id="Custom-Preset" stroke="none" stroke-width="1" fill="none" fill-rule="evenodd">
        <rect fill="#FFFFFF" x="0" y="0" width="1000" height="1000"></rect>
        <g id="grid_basic" transform="translate(94.000000, 94.000000)" stroke="#000000" stroke-linecap="round" stroke-width="1.1">
            <g id="Group" transform="translate(12.000000, 2.000000)">
                <path d="M6,18 L0.5339,0.78636" id="Path"></path>
            </g>
            <g id="Group">
                <path d="M17.4345372,79.2882096 L25.8450498,90.795414" id="Path"></path>
                <path d="M17.4345372,138.458515 L8.08861591,159.826806" id="Path"></path>
                <path d="M17.4345372,197.628821 L12.6015918,180.699368" id="Path"></path>
                <path d="M17.4345372,256.799127 L13.8214588,260.70484" id="Path"></path>
                <path d="M17.4345372,315.969432 L20.2804043,308.146763" id="Path"></path>
                <path d="M17.4345372,375.139738 L5.9811474,379.418461" id="Path"></path>
                <path d="M17.4345372,434.310044 L0.755098984,412.626493" id="Path"></path>
                <path d="M17.4345372,493.480349 L8.75929503,484.307887" id="Path"></path>
                <path d="M17.4345372,552.650655 L34.7467574,528.942415" id="Path"></path>
                <path d="M17.4345372,611.820961 L29.2415729,612.042494" id="Path"></path>
                <path d="M17.4345372,670.991266 L21.7931716,688.981051" id="Path"></path>
                <path d="M17.4345372,730.161572 L12.4283475,729.460049" id="Path"></path>
                <path d="M17.4345372,789.331878 L12.9174322,766.039369" id="Path"></path>
                <path d="M63.3148984,20.1179039 L68.5426903,8.14408253" id="Path"></path>
                <path d="M63.3148984,79.2882096 L67.8474193,88.2829245" id="Path"></path>
                <path d="M63.3148984,138.458515 L54.4746704,136.988015" id="Path"></path>
                <path d="M63.3148984,197.628821 L56.1071854,197.26019" id="Path"></path>
                <path d="M63.3148984,256.799127 L63.8050842,255.395015" id="Path"></path>
                <path d="M63.3148984,315.969432 L61.2736812,295.836262" id="Path"></path>
                <path d="M63.3148984,375.139738 L69.9090074,397.831905" id="Path"></path>
                <path d="M63.3148984,434.310044 L64.0928458,456.268854" id="Path"></path>
                <path d="M63.3148984,493.480349 L65.0869815,490.928689" id="Path"></path>
                <path d="M63.3148984,552.650655 L75.8634525,547.061428" id="Path"></path>
                <path d="M63.3148984,611.820961 L78.1066351,622.152214" id="Path"></path>
                <path d="M63.3148984,670.991266 L45.8368666,684.261272" id="Path"></path>
                <path d="M63.3148984,730.161572 L76.8382266,726.076809" id="Path"></path>
                <path d="M63.3148984,789.331878 L73.6250414,812.168894" id="Path"></path>
                <path d="M109.19526,20.1179039 L92.7140245,37.8938472" id="Path"></path>
                <path d="M109.19526,79.2882096 L113.005348,76.0611795" id="Path"></path>
                <path d="M109.19526,138.458515 L105.213578,115.839601" id="Path"></path>
                <path d="M109.19526,197.628821 L104.163102,204.189033" id="Path"></path>
                <path d="M109.19526,256.799127 L113.165287,245.093702" id="Path"></path>
                <path d="M109.19526,315.969432 L105.188069,294.607414" id="Path"></path>
                <path d="M109.19526,375.139738 L95.4254621,365.08552" id="Path"></path>
                <path d="M109.19526,434.310044 L111.642885,447.15355" id="Path"></path>
                <path d="M109.19526,493.480349 L94.0447385,488.401999" id="Path"></path>
                <path d="M109.19526,552.650655 L123.043788,546.737885" id="Path"></path>
                <path d="M109.19526,611.820961 L121.455501,594.708908" id="Path"></path>
                <path d="M109.19526,670.991266 L102.458554,683.742231" id="Path"></path>
                <path d="M109.19526,730.161572 L124.341743,740.07674" id="Path"></path>
                <path d="M109.19526,789.331878 L102.205845,806.47174" id="Path"></path>
                <path d="M155.075621,20.1179039 L140.953921,19.3249035" id="Path"></path>
                <path d="M155.075621,79.2882096 L168.754025,62.3591118" id="Path"></path>
                <path d="M155.075621,138.458515 L151.725162,155.734706" id="Path"></path>
                <path d="M155.075621,197.628821 L173.576876,197.537817" id="Path"></path>
                <path d="M155.075621,256.799127 L150.171285,264.360027" id="Path"></path>
                <path d="M155.075621,315.969432 L146.550774,309.862465" id="Path"></path>
                <path d="M155.075621,375.139738 L140.602569,355.954121" id="Path"></path>
                <path d="M155.075621,434.310044 L164.045874,437.30773" id="Path"></path>
                <path d="M155.075621,493.480349 L156.054065,503.710185" id="Path"></path>
                <path d="M155.075621,552.650655 L160.114569,550.426325" id="Path"></path>
                <path d="M155.075621,611.820961 L142.111574,612.415504" id="Path"></path>
                <path d="M155.075621,670.991266 L154.694171,649.668182" id="Path"></path>
                <path d="M155.075621,730.161572 L147.009578,734.837328" id="Path"></path>
                <path d="M155.075621,789.331878 L139.348475,779.177425" id="Path"></path>
                <path d="M200.955982,20.1179039 L200.302554,25.1883258" id="Path"></path>
                <path d="M200.955982,79.2882096 L201.053615,99.1628052" id="Path"></path>
                <path d="M200.955982,138.458515 L202.30046,119.000479" id="Path"></path>
                <path d="M200.955982,197.628821 L192.462701,201.54696" id="Path"></path>
                <path d="M200.955982,256.799127 L197.122586,255.506019" id="Path"></path>
                <path d="M200.955982,315.969432 L189.434047,302.999775" id="Path"></path>
                <path d="M200.955982,375.139738 L189.969746,399.200041" id="Path"></path>
                <path d="M200.955982,434.310044 L191.781103,412.308512" id="Path"></path>
                <path d="M200.955982,493.480349 L187.847137,498.240009" id="Path"></path>
                <path d="M200.955982,552.650655 L204.171461,541.959764" id="Path"></path>
                <path d="M200.955982,611.820961 L211.951486,632.207024" id="Path"></path>
                <path d="M200.955982,670.991266 L193.756711,690.519006" id="Path"></path>
                <path d="M200.955982,730.161572 L197.221596,739.109661" id="Path"></path>
                <path d="M200.955982,789.331878 L199.557732,777.996386" id="Path"></path>
                <path d="M246.836343,20.1179039 L229.570921,31.6178895" id="Path"></path>
                <path d="M246.836343,79.2882096 L259.717622,67.8987541" id="Path"></path>
                <path d="M246.836343,138.458515 L234.659145,145.072927" id="Path"></path>
                <path d="M246.836343,197.628821 L235.926544,191.115354" id="Path"></path>
                <path d="M246.836343,256.799127 L229.211035,271.735724" id="Path"></path>
                <path d="M246.836343,315.969432 L256.780911,316.900181" id="Path"></path>
                <path d="M246.836343,375.139738 L255.21841,368.845556" id="Path"></path>
                <path d="M246.836343,434.310044 L264.698577,411.276227" id="Path"></path>
                <path d="M246.836343,493.480349 L233.463502,487.614324" id="Path"></path>
                <path d="M246.836343,552.650655 L228.701029,551.827359" id="Path"></path>
                <path d="M246.836343,611.820961 L250.955482,614.573327" id="Path"></path>
                <path d="M246.836343,670.991266 L232.196562,683.794182" id="Path"></path>
                <path d="M246.836343,730.161572 L258.769091,728.941954" id="Path"></path>
                <path d="M246.836343,789.331878 L231.081027,793.966096" id="Path"></path>
                <path d="M292.716704,20.1179039 L299.590592,21.642131" id="Path"></path>
                <path d="M292.716704,79.2882096 L283.729659,84.6154306" id="Path"></path>
                <path d="M292.716704,138.458515 L310.321733,118.777525" id="Path"></path>
                <path d="M292.716704,197.628821 L301.572899,184.711707" id="Path"></path>
                <path d="M292.716704,256.799127 L291.624752,259.591137" id="Path"></path>
                <path d="M292.716704,315.969432 L307.832999,310.210031" id="Path"></path>
                <path d="M292.716704,375.139738 L291.648334,361.577194" id="Path"></path>
                <path d="M292.716704,434.310044 L294.24608,444.565323" id="Path"></path>
                <path d="M292.716704,493.480349 L298.242535,485.685963" id="Path"></path>
                <path d="M292.716704,552.650655 L285.576986,532.411452" id="Path"></path>
                <path d="M292.716704,611.820961 L295.784173,593.852951" id="Path"></path>
                <path d="M292.716704,670.991266 L291.446185,669.199826" id="Path"></path>
                <path d="M292.716704,730.161572 L305.644781,715.062848" id="Path"></path>
                <path d="M292.716704,789.331878 L293.035022,803.536893" id="Path"></path>
                <path d="M338.597065,20.1179039 L349.846012,32.8163249" id="Path"></path>
                <path d="M338.597065,79.2882096 L350.277655,75.3196572" id="Path"></path>
                <path d="M338.597065,138.458515 L324.792766,139.877301" id="Path"></path>
                <path d="M338.597065,197.628821 L323.644748,200.101666" id="Path"></path>
                <path d="M338.597065,256.799127 L343.680334,254.55527" id="Path"></path>
                <path d="M338.597065,315.969432 L338.680843,320.194902" id="Path"></path>
                <path d="M338.597065,375.139738 L347.073003,374.326738" id="Path"></path>
                <path d="M338.597065,434.310044 L349.793892,454.791372" id="Path"></path>
                <path d="M338.597065,493.480349 L334.702832,477.670162" id="Path"></path>
                <path d="M338.597065,552.650655 L351.522114,549.855213" id="Path"></path>
                <path d="M338.597065,611.820961 L346.820845,594.211641" id="Path"></path>
                <path d="M338.597065,670.991266 L344.773663,651.769556" id="Path"></path>
                <path d="M338.597065,730.161572 L355.205573,730.176601" id="Path"></path>
                <path d="M338.597065,789.331878 L338.244337,802.093256" id="Path"></path>
                <path d="M384.477427,20.1179039 L372.324728,29.7909472" id="Path"></path>
                <path d="M384.477427,79.2882096 L374.64967,87.9641148" id="Path"></path>
                <path d="M384.477427,138.458515 L391.192109,161.620376" id="Path"></path>
                <path d="M384.477427,197.628821 L373.950178,184.371596" id="Path"></path>
                <path d="M384.477427,256.799127 L376.962315,241.250117" id="Path"></path>
                <path d="M384.477427,315.969432 L368.5819,309.533952" id="Path"></path>
                <path d="M384.477427,375.139738 L388.801192,358.983168" id="Path"></path>
                <path d="M384.477427,434.310044 L379.111351,419.144339" id="Path"></path>
                <path d="M384.477427,493.480349 L399.165565,488.617734" id="Path"></path>
                <path d="M384.477427,552.650655 L402.538139,549.151086" id="Path"></path>
                <path d="M384.477427,611.820961 L394.063761,619.096423" id="Path"></path>
                <path d="M384.477427,670.991266 L398.28659,683.236916" id="Path"></path>
                <path d="M384.477427,730.161572 L366.728701,711.908598" id="Path"></path>
                <path d="M384.477427,789.331878 L386.062868,797.722582" id="Path"></path>
                <path d="M430.357788,20.1179039 L421.565459,19.1749659" id="Path"></path>
                <path d="M430.357788,79.2882096 L428.507525,78.7539017" id="Path"></path>
                <path d="M430.357788,138.458515 L429.002298,154.8152" id="Path"></path>
                <path d="M430.357788,197.628821 L440.211054,193.862158" id="Path"></path>
                <path d="M430.357788,256.799127 L447.030895,237.858948" id="Path"></path>
                <path d="M430.357788,315.969432 L436.716622,332.037839" id="Path"></path>
                <path d="M430.357788,375.139738 L415.399689,362.776694" id="Path"></path>
                <path d="M430.357788,434.310044 L430.323469,414.787038" id="Path"></path>
                <path d="M430.357788,493.480349 L448.712043,497.74854" id="Path"></path>
                <path d="M430.357788,552.650655 L443.526461,554.186006" id="Path"></path>
                <path d="M430.357788,611.820961 L434.079878,629.781042" id="Path"></path>
                <path d="M430.357788,670.991266 L430.983321,674.73722" id="Path"></path>
                <path d="M430.357788,730.161572 L427.151668,751.676369" id="Path"></path>
                <path d="M430.357788,789.331878 L421.001498,780.185805" id="Path"></path>
                <path d="M476.238149,20.1179039 L469.732589,6.54033057" id="Path"></path>
                <path d="M476.238149,79.2882096 L469.581643,97.6769205" id="Path"></path>
                <path d="M476.238149,138.458515 L459.517143,161.953505" id="Path"></path>
                <path d="M476.238149,197.628821 L458.997961,182.840505" id="Path"></path>
                <path d="M476.238149,256.799127 L470.559812,275.39091" id="Path"></path>
                <path d="M476.238149,315.969432 L477.888282,302.054825" id="Path"></path>
                <path d="M476.238149,375.139738 L471.280409,371.389642" id="Path"></path>
                <path d="M476.238149,434.310044 L460.305001,453.122532" id="Path"></path>
                <path d="M476.238149,493.480349 L489.411318,496.023844" id="Path"></path>
                <path d="M476.238149,552.650655 L458.273235,574.878335" id="Path"></path>
                <path d="M476.238149,611.820961 L468.425641,594.187618" id="Path"></path>
                <path d="M476.238149,670.991266 L469.572467,692.793039" id="Path"></path>
                <path d="M476.238149,730.161572 L459.730946,726.801409" id="Path"></path>
                <path d="M476.238149,789.331878 L488.230541,796.634322" id="Path"></path>
                <path d="M522.11851,20.1179039 L529.527271,24.4466852" id="Path"></path>
                <path d="M522.11851,79.2882096 L531.973703,77.1112157" id="Path"></path>
                <path d="M522.11851,138.458515 L530.845597,147.178917" id="Path"></path>
                <path d="M522.11851,197.628821 L510.370477,205.164869" id="Path"></path>
                <path d="M522.11851,256.799127 L539.343925,276.95632" id="Path"></path>
                <path d="M522.11851,315.969432 L536.976039,305.648948" id="Path"></path>
                <path d="M522.11851,375.139738 L520.534904,379.068055" id="Path"></path>
                <path d="M522.11851,434.310044 L522.859478,447.881463" id="Path"></path>
                <path d="M522.11851,493.480349 L505.7673,515.122244" id="Path"></path>
                <path d="M522.11851,552.650655 L504.800968,538.186829" id="Path"></path>
                <path d="M522.11851,611.820961 L508.133534,629.245669" id="Path"></path>
                <path d="M522.11851,670.991266 L537.340329,682.248417" id="Path"></path>
                <path d="M522.11851,730.161572 L519.349722,729.780279" id="Path"></path>
                <path d="M522.11851,789.331878 L515.073581,781.392879" id="Path"></path>
                <path d="M567.998871,20.1179039 L560.582862,4.56830262" id="Path"></path>
                <path d="M567.998871,79.2882096 L586.334132,103.084376" id="Path"></path>
                <path d="M567.998871,138.458515 L574.67272,140.379538" id="Path"></path>
                <path d="M567.998871,197.628821 L577.178339,216.029603" id="Path"></path>
                <path d="M567.998871,256.799127 L559.709758,241.182663" id="Path"></path>
                <path d="M567.998871,315.969432 L568.067875,308.337646" id="Path"></path>
                <path d="M567.998871,375.139738 L576.088313,380.661984" id="Path"></path>
                <path d="M567.998871,434.310044 L571.678017,420.274374" id="Path"></path>
                <path d="M567.998871,493.480349 L559.872542,493.846969" id="Path"></path>
                <path d="M567.998871,552.650655 L578.896008,532.539615" id="Path"></path>
                <path d="M567.998871,611.820961 L568.84307,610.238983" id="Path"></path>
                <path d="M567.998871,670.991266 L551.65647,692.399911" id="Path"></path>
                <path d="M567.998871,730.161572 L574.76026,719.962386" id="Path"></path>
                <path d="M567.998871,789.331878 L556.504831,795.702271" id="Path"></path>
                <path d="M613.879233,20.1179039 L603.484211,16.0079345" id="Path"></path>
                <path d="M613.879233,79.2882096 L619.287242,99.8372284" id="Path"></path>
                <path d="M613.879233,138.458515 L605.480741,116.894607" id="Path"></path>
                <path d="M613.879233,197.628821 L610.954451,176.282186" id="Path"></path>
                <path d="M613.879233,256.799127 L614.859237,237.233873" id="Path"></path>
                <path d="M613.879233,315.969432 L617.670602,315.767307" id="Path"></path>
                <path d="M613.879233,375.139738 L630.135929,385.754654" id="Path"></path>
                <path d="M613.879233,434.310044 L603.137998,457.362913" id="Path"></path>
                <path d="M613.879233,493.480349 L623.559989,477.879152" id="Path"></path>
                <path d="M613.879233,552.650655 L607.405055,573.251034" id="Path"></path>
                <path d="M613.879233,611.820961 L598.414431,606.312915" id="Path"></path>
                <path d="M613.879233,670.991266 L628.1728,689.147911" id="Path"></path>
                <path d="M613.879233,730.161572 L595.758325,731.604381" id="Path"></path>
                <path d="M613.879233,789.331878 L599.417559,777.60598" id="Path"></path>
                <path d="M659.759594,20.1179039 L650.59958,36.4589672" id="Path"></path>
                <path d="M659.759594,79.2882096 L674.399742,61.3920323" id="Path"></path>
                <path d="M659.759594,138.458515 L674.316056,148.114636" id="Path"></path>
                <path d="M659.759594,197.628821 L659.330062,201.511458" id="Path"></path>
                <path d="M659.759594,256.799127 L649.296027,247.584535" id="Path"></path>
                <path d="M659.759594,315.969432 L652.626207,320.75347" id="Path"></path>
                <path d="M659.759594,375.139738 L661.558196,355.695666" id="Path"></path>
                <path d="M659.759594,434.310044 L643.24349,456.080574" id="Path"></path>
                <path d="M659.759594,493.480349 L666.305895,510.682104" id="Path"></path>
                <path d="M659.759594,552.650655 L666.19514,566.622658" id="Path"></path>
                <path d="M659.759594,611.820961 L649.977901,595.851605" id="Path"></path>
                <path d="M659.759594,670.991266 L676.519965,654.506893" id="Path"></path>
                <path d="M659.759594,730.161572 L656.646336,746.750677" id="Path"></path>
                <path d="M659.759594,789.331878 L645.282321,792.304002" id="Path"></path>
                <path d="M705.639955,20.1179039 L717.918916,41.0741328" id="Path"></path>
                <path d="M705.639955,79.2882096 L691.234347,95.0199371" id="Path"></path>
                <path d="M705.639955,138.458515 L702.590379,134.96013" id="Path"></path>
                <path d="M705.639955,197.628821 L692.141494,186.819353" id="Path"></path>
                <path d="M705.639955,256.799127 L690.426027,268.854011" id="Path"></path>
                <path d="M705.639955,315.969432 L722.963737,299.117493" id="Path"></path>
                <path d="M705.639955,375.139738 L721.077045,383.328435" id="Path"></path>
                <path d="M705.639955,434.310044 L707.131984,428.242247" id="Path"></path>
                <path d="M705.639955,493.480349 L700.6189,511.05038" id="Path"></path>
                <path d="M705.639955,552.650655 L707.584456,542.416559" id="Path"></path>
                <path d="M705.639955,611.820961 L719.660351,622.801549" id="Path"></path>
                <path d="M705.639955,670.991266 L706.981221,668.523983" id="Path"></path>
                <path d="M705.639955,730.161572 L713.318767,715.447692" id="Path"></path>
                <path d="M705.639955,789.331878 L719.279819,811.92381" id="Path"></path>
                <path d="M751.520316,20.1179039 L759.255928,0.426617904" id="Path"></path>
                <path d="M751.520316,79.2882096 L754.120173,102.28179" id="Path"></path>
                <path d="M751.520316,138.458515 L733.551273,125.519745" id="Path"></path>
                <path d="M751.520316,197.628821 L765.88665,210.810308" id="Path"></path>
                <path d="M751.520316,256.799127 L742.029505,235.474267" id="Path"></path>
                <path d="M751.520316,315.969432 L747.444029,338.544797" id="Path"></path>
                <path d="M751.520316,375.139738 L767.734619,364.936529" id="Path"></path>
                <path d="M751.520316,434.310044 L764.660727,426.537314" id="Path"></path>
                <path d="M751.520316,493.480349 L742.579702,502.485241" id="Path"></path>
                <path d="M751.520316,552.650655 L748.663162,530.26854" id="Path"></path>
                <path d="M751.520316,611.820961 L759.716751,605.561571" id="Path"></path>
                <path d="M751.520316,670.991266 L745.716634,661.860223" id="Path"></path>
                <path d="M751.520316,730.161572 L761.702636,726.171008" id="Path"></path>
                <path d="M751.520316,789.331878 L735.49816,789.948551" id="Path"></path>
                <path d="M797.400677,20.1179039 L784.288621,37.9114799" id="Path"></path>
                <path d="M797.400677,79.2882096 L783.399643,56.6737921" id="Path"></path>
                <path d="M797.400677,138.458515 L795.119506,118.898469" id="Path"></path>
                <path d="M797.400677,197.628821 L788.426937,194.644981" id="Path"></path>
                <path d="M797.400677,256.799127 L812.661219,269.54228" id="Path"></path>
                <path d="M797.400677,315.969432 L779.285184,318.332813" id="Path"></path>
                <path d="M797.400677,375.139738 L783.326418,375.235712" id="Path"></path>
                <path d="M797.400677,434.310044 L797.922887,443.714217" id="Path"></path>
                <path d="M797.400677,493.480349 L801.025501,503.55149" id="Path"></path>
                <path d="M797.400677,552.650655 L808.429215,557.523448" id="Path"></path>
                <path d="M797.400677,611.820961 L802.944952,625.795685" id="Path"></path>
                <path d="M797.400677,670.991266 L807.696873,674.339714" id="Path"></path>
                <path d="M797.400677,730.161572 L795.59244,717.072627" id="Path"></path>
                <path d="M797.400677,789.331878 L806.22448,767.56111" id="Path"></path>
            </g>
        </g>
    </g>
</svg>